<svg width="294" height="178" viewBox="0 0 294 178" fill="none" xmlns="http://www.w3.org/2000/svg">
<path d="M1.00416 37.7075C1.81512 38.3462 2.37856 38.7898 2.94653 39.2361C3.00246 39.2155 3.09996 39.2113 3.13094 39.1636C3.40492 38.7341 3.20803 37.9366 3.73444 37.8155C4.49325 37.6411 5.31857 37.7514 6.11517 37.7579C6.34908 37.7602 6.50402 37.9251 6.41068 38.158C5.83893 39.5755 6.98697 40.1757 7.70421 40.9831C7.8104 41.1019 7.90147 41.2343 8.06245 41.4424C8.30808 41.2175 8.39953 40.3055 8.95466 41.0465C9.59065 41.8944 10.4318 42.1456 11.4404 42.1907C12.2654 42.2281 13.0824 42.4449 13.9043 42.5702C14.0589 42.5938 14.2693 42.6206 14.3744 42.5404C15.4658 41.7009 16.4932 40.8205 18.0596 41.5153C18.3623 41.6497 18.8124 41.0496 18.6571 40.4357C18.4689 39.6885 18.1809 38.9929 17.8454 38.3046C17.6813 37.9675 17.2056 37.4204 17.9871 37.2875C18.5475 37.1925 19.2953 36.4411 19.7242 37.4868C20.3258 38.9551 21.4089 39.8977 22.8158 40.5086C23.2466 40.6964 23.5583 40.843 23.9506 40.2364C24.2862 39.7183 25.037 39.4671 25.6163 39.1197C26.0683 38.8498 26.1571 39.1995 26.2346 39.5312C26.4526 40.4673 26.7171 41.3958 26.8679 42.3434C26.9601 42.9271 27.1234 43.1604 27.7053 42.9046C28.6727 42.4801 29.4943 42.7156 30.3544 43.3207C31.6558 44.237 33.0004 44.7081 34.5025 43.5013C35.3414 42.8267 36.4932 43.0149 37.5241 43.0661C38.3139 43.1054 38.7599 42.905 38.637 42.0082C38.5403 41.3065 38.8978 41.0835 39.5489 41.1229C40.1456 41.1587 40.7468 41.1087 41.3443 41.1355C42.1484 41.1706 42.8846 41.179 42.9719 40.068C43.0085 39.5984 43.3244 39.7336 43.564 39.9348C44.0972 40.3814 44.7211 40.4257 45.3718 40.3967C46.3332 40.3547 46.671 39.9092 46.0925 39.1166C45.2502 37.9633 45.0053 36.745 45.0952 35.3825C45.119 35.0335 44.9864 34.7063 44.6161 34.6453C43.8153 34.512 43.2005 34.3066 43.6162 33.2655C43.6929 33.0731 43.4525 32.9353 43.2341 32.9002C42.3204 32.7536 41.6016 32.237 41.0163 31.5655C39.8096 30.1815 38.1174 30.5415 36.61 30.235C36.4676 30.206 36.293 30.2762 36.2068 30.0891C37.8684 28.4742 37.5249 26.7337 35.6725 25.0864C34.7833 24.2957 34.1295 23.1103 33.2876 22.186C32.8749 21.7321 32.4298 21.4408 32.7872 20.6528C33.1489 21.3056 33.6194 21.7409 34.2127 22.1226C35.2349 22.7793 35.9015 22.3777 36.4237 21.5679C36.8999 20.8303 37.249 20.003 37.5967 19.1894C37.7584 18.8107 37.8979 18.5874 38.3623 18.6393C39.5527 18.7733 39.787 19.1234 39.0478 20.1202C38.1012 21.3976 37.7747 22.6964 38.1284 24.2655C38.3 25.0272 38.5082 25.1348 39.1328 24.7867C39.855 24.3843 40.7083 23.7215 40.5677 25.4181C40.5303 25.8686 40.9599 26.0183 41.308 26.069C42.131 26.1901 42.9703 26.0713 43.7964 26.3141C44.3391 26.4741 44.2026 26.0068 44.1554 25.7048C43.9461 24.3682 43.7307 23.0328 43.4994 21.587C44.4762 21.7977 45.2116 22.3505 46.0282 22.7037C46.3026 22.8224 46.6049 23.1301 46.894 22.8094C47.1687 22.5033 46.8751 22.1994 46.7455 21.9272C46.2486 20.8815 45.729 19.8469 45.1406 18.6519C45.8038 18.779 46.0078 19.2803 46.3941 19.4926C47.0282 19.8404 47.6422 20.1622 48.0092 19.1387C48.3013 18.322 49.096 18.6072 49.6662 18.5274C49.9769 18.4839 49.9168 18.9848 49.8053 19.2207C49.1667 20.5707 50.4897 21.5137 50.5343 22.7545C50.5509 23.205 51.6793 22.7556 52.1777 23.4035C51.5636 23.8017 50.9503 24.2144 50.3226 24.6034C49.506 25.1089 49.3458 25.7926 49.9549 26.5043C50.501 27.1426 50.0388 27.3224 49.6288 27.5771C47.5546 28.8625 47.3501 29.7673 48.7196 31.8266C49.3182 32.728 50.0116 33.5709 50.3476 34.6224C50.4515 34.9488 50.6386 35.0641 50.9552 35.0793C51.148 35.0889 51.4699 35.1118 51.5088 35.2153C52.0258 36.5824 53.3658 36.1884 54.3204 36.6103C55.2311 37.0119 55.4601 36.4656 55.6052 35.7757C55.8421 34.6392 56.0371 33.4934 56.2805 32.358C56.3217 32.1637 56.2911 31.8449 56.6335 31.8174C57.2101 33.7034 57.2101 33.7034 59.0554 34.4864C57.0533 35.1129 56.9785 36.6122 57.0616 38.2175C57.0933 38.8299 57.3696 38.9975 57.8941 38.9215C59.3838 38.7066 60.8708 38.471 62.3623 38.2702C62.8128 38.2091 63.2409 38.0961 63.6128 38.6501C64.0296 39.2705 64.7948 38.8356 65.3934 38.9559C65.9066 39.0586 66.3559 39.3999 66.7496 38.5711C67.0527 37.9339 67.9181 38.1129 68.5012 38.3363C69.5612 38.7425 70.1057 38.489 70.3736 37.3425C70.4814 36.8829 70.3619 36.0968 71.078 36.0208C71.7133 35.9525 73.3957 37.4425 73.3564 37.9766C73.2883 38.92 73.506 39.3262 74.5395 38.9819C75.0905 38.7986 75.7273 38.8608 76.3119 38.8383C77.5695 38.791 78.3064 38.4455 78.4583 37.0085C78.5494 36.1491 80.6731 36.2919 81.3458 37.2513C81.7826 37.8743 82.235 38.3619 83.0198 38.4764C83.4329 38.5356 83.7499 38.5653 83.6766 37.9992C83.5179 36.7702 84.4192 36.8596 85.0574 37.0485C86.3472 37.4292 87.0002 37.194 87.0716 35.71C87.1109 34.8869 87.8206 35.0316 88.3727 35.1649C90.1382 35.5909 91.883 35.7005 93.664 35.1629C94.2932 34.9736 94.518 34.7289 94.4715 34.1001C94.4303 33.5385 94.4175 32.967 94.473 32.4081C94.5724 31.4109 94.399 30.6714 93.2381 30.4793C92.5851 30.3713 92.5741 29.7711 92.5439 29.237C92.3723 26.1729 92.375 26.1297 89.3439 25.9064C88.3995 25.8373 87.4869 25.6269 86.3895 25.5701C87.3891 24.8317 88.4249 24.5488 89.4066 24.156C90.8192 23.5898 92.047 22.8243 92.6361 21.306C92.8114 20.8551 92.898 20.3897 92.4063 20.1404C91.3494 19.6063 90.6556 18.6267 89.6878 17.9838C88.8247 17.4104 87.9147 17.066 86.8872 17.258C86.4375 17.3416 86.173 17.2619 86.0993 16.8106C85.9183 15.7042 85.7433 14.5963 85.5997 13.4846C85.523 12.8867 85.6409 12.3625 86.4269 12.6523C86.8645 12.8138 87.0765 12.5626 87.3702 12.3511C88.5979 11.4638 89.3658 11.5952 90.1265 12.9077C90.5055 13.5617 90.8929 13.1184 91.2428 13.0192C91.7685 12.8695 92.0734 12.8481 92.0696 13.5449C92.0677 13.9778 92.2008 14.4123 92.2726 14.846C92.5114 16.2941 92.9898 16.6865 94.4258 16.6632C94.9356 16.6552 95.0792 16.3444 95.219 15.9268C95.6033 14.7795 95.9978 13.6357 95.8864 12.4011C95.8164 11.6288 96.0764 11.2859 96.8863 11.3417C97.274 11.3684 97.9534 11.5784 97.9799 10.9767C98.0105 10.2807 98.6639 9.51715 97.8586 8.83606C97.3409 8.39778 96.8893 7.87742 96.4143 7.38836C96.2518 7.22076 95.9744 7.05775 96.0655 6.80425C96.1766 6.49577 96.5121 6.52097 96.7933 6.51944C96.9928 6.5183 97.1973 6.49119 97.3911 6.52364C98.3173 6.67635 98.5214 6.25182 98.2267 5.45582C97.8548 4.45289 98.3412 4.52848 99.0149 4.78351C99.3501 4.91026 99.7053 4.9847 100.039 5.11489C100.413 5.26073 100.655 5.24202 100.68 4.75755C100.693 4.48878 100.648 4.1364 101.065 4.14594C101.415 4.15472 101.449 4.50443 101.588 4.73655C102.823 6.79661 101.878 8.85629 101.563 10.9099C101.535 11.0935 101.256 11.2535 101.071 11.3947C98.2361 13.5605 96.6739 16.3914 96.5957 20.0232C96.5666 21.3511 95.2337 21.8226 94.6831 22.8232C94.4776 23.1966 94.0853 23.4661 93.7751 23.7803C93.4886 24.0697 93.4006 24.4263 93.5786 24.7779C94.631 26.8605 95.2904 29.2828 98.1004 29.7982C98.818 29.9303 98.6737 30.7844 98.7319 31.3272C98.8264 32.2023 98.857 33.0823 98.9579 33.9623C99.0429 34.6957 99.1702 35.2908 99.8013 35.7077C99.9309 35.7933 100.147 35.9735 100.125 36.0288C99.4703 37.6556 100.866 39.5022 99.6203 41.0381C99.2281 41.5214 99.3822 41.883 99.5999 42.3419C100.962 45.2197 101.773 48.3002 102.802 51.301C103.363 52.9365 102.879 54.5503 102.724 56.1812C102.582 57.6866 102.136 59.1816 102.477 60.7209C103.015 63.1487 104.712 64.7113 106.605 65.9746C110.508 68.5783 112.178 72.6461 113.904 76.7166C114.255 77.5424 113.897 77.6913 113.17 77.6699C109.545 77.5615 105.944 78.0375 102.331 78.2116C100.197 78.3143 98.0509 78.4086 95.9136 78.6075C93.2328 78.8572 90.5762 78.417 88.0303 77.6065C84.9176 76.615 81.7188 76.4623 78.5146 76.1989C76.3731 76.0225 74.2818 75.4983 72.2272 74.8871C67.0505 73.3459 62.2059 71.0827 57.4905 68.4011C50.8286 64.6128 44.0352 61.0271 36.5934 58.9629C33.8329 58.1966 31.078 58.4227 28.3474 59.1518C25.0385 60.0357 21.7539 60.9691 18.2557 60.2735C17.2558 60.0742 16.1856 60.2403 15.1479 60.2372C14.9084 60.2369 14.5584 60.3327 14.4473 60.2097C13.5317 59.2 12.2401 59.7463 11.1687 59.3622C9.97081 58.9335 8.75097 58.5624 7.58328 58.0523C5.49164 57.1391 3.48314 56.0858 1.84535 54.43C1.34615 53.9253 0.998869 53.3817 1 52.6349C1.00756 47.7421 1.00416 42.8496 1.00416 37.7075Z" fill="#CCCCCC" stroke="white" stroke-width="0.189915"/>
<path d="M278.676 70.4859C276.428 70.7359 274.495 70.34 272.615 69.5986C270.768 68.871 268.874 68.9946 266.97 69.2783C265.83 69.4474 264.677 69.3699 263.524 69.5169C262.315 69.6715 261.067 69.6498 259.85 69.8326C258.86 69.9811 258.119 69.5833 257.887 68.6953C257.272 66.344 255.596 66.0561 253.537 65.8965C249.116 65.5552 244.714 64.9761 240.303 64.4935C240.184 64.4809 239.987 64.5053 239.959 64.4477C239.169 62.8171 237.559 63.481 236.408 63.3711C232.082 62.9591 227.892 61.9054 223.662 61.0312C220.363 60.3497 217.068 59.6728 213.7 59.3735C212.307 59.2502 210.923 59.1521 209.535 59.1872C208.705 59.2078 208.733 58.7321 209.036 58.3156C210.101 56.8519 210.244 55.2087 210.137 53.49C210.122 53.2441 210.139 52.9486 210.362 52.8333C212.028 51.9674 212.006 50.2827 212.265 48.7708C212.709 46.1755 213.67 43.8635 215.097 41.6198C217.038 38.5648 219.465 35.7969 220.635 32.2418C221.28 30.2822 223.005 29.0548 224.453 27.6857C224.867 27.2936 225.426 27.4414 225.936 27.5849C227.229 27.9476 228.32 28.699 229.392 29.4636C230.881 30.5265 232.469 30.7983 234.258 30.4559C236.485 30.0294 238.581 30.6326 240.643 31.489C242.385 32.2124 244.078 33.0348 245.574 34.1667C247.378 35.5305 249.407 36.2226 251.573 36.139C256.124 35.9626 260.116 37.655 264.134 39.4616C266.251 40.4126 268.35 41.3426 270.204 42.7708C273.204 45.0829 275.702 47.8298 277.785 51.0294C279.344 53.4247 281.791 54.6826 284.577 55.0297C286.904 55.319 289.047 56.0822 291.166 57.0126C293.378 57.9846 293.37 57.956 292.295 60.1875C291.575 61.6821 290.899 63.4264 289.502 64.1625C287.669 65.1284 286.592 66.7639 285.127 68.0318C283.189 69.7074 281.203 71.1215 278.676 70.4859Z" fill="#CCCCCC" stroke="white" stroke-width="0.189915"/>
<path d="M139.887 52.2486C138.352 52.5357 138.323 52.6621 138.527 54.1144C138.872 56.5723 139.121 59.045 139.408 61.5109C139.786 64.7736 140.168 68.0362 140.536 71.2993C140.887 74.4054 141.251 77.5104 141.552 80.6215C141.746 82.6155 142.117 84.5931 142.057 86.615C142.037 87.3331 141.848 87.6469 141.1 87.5996C140.304 87.5492 139.503 87.5828 138.705 87.5927C132.086 87.6702 125.466 87.7294 118.848 87.8531C117.825 87.8718 117.571 87.5412 117.589 86.5558C117.645 83.4913 117.598 80.4249 117.619 77.3596C117.623 76.7243 117.455 76.2452 117.047 75.7275C115.847 74.2065 115.018 72.4381 114.287 70.6613C113.011 67.5602 110.731 65.3909 108.228 63.3495C106.743 62.1385 105.232 60.8615 104.963 58.7656C104.771 57.269 105.218 55.7988 105.513 54.3675C105.908 52.4441 105.844 50.6524 105.183 48.8276C104.595 47.2031 104.218 45.4885 103.512 43.9221C102.727 42.1782 103.203 40.6236 103.808 39.0457C104.145 38.1695 104.117 37.4231 103.785 36.5145C102.976 34.2922 102.12 32.0657 101.695 29.7258C101.448 28.3682 100.717 27.5264 99.4756 27.1621C98.5248 26.8838 97.9167 26.2203 97.2932 25.5438C96.8405 25.0536 96.7162 24.4034 96.5306 23.7911C96.2506 22.8641 97.1942 22.9443 97.5748 22.6114C98.8683 21.4779 99.0051 19.8836 99.3871 18.3821C99.5542 17.7235 99.6936 17.0527 99.7816 16.3793C100.004 14.6582 101.4 13.761 102.393 12.6085C104.274 10.4224 104.961 7.84924 105.07 5.05311C105.09 4.54382 104.603 4.22733 104.408 3.78944C104.189 3.29771 103.96 2.66625 104.373 2.33258C104.706 2.06343 105.297 2.41924 105.68 2.69106C106.265 3.10605 106.484 3.76118 106.588 4.45716C106.745 5.52537 106.864 6.60236 107.091 7.65645C107.208 8.19971 107.055 8.41427 106.569 8.48719C105.696 8.61814 105.534 9.18088 105.619 9.96466C105.693 10.6461 105.639 11.3238 105.394 11.9873C105.21 12.4863 105 12.8711 104.394 12.8058C103.952 12.7581 103.787 13.0185 103.634 13.3976C102.523 16.1429 101.017 18.7394 100.596 21.7428C100.512 22.3392 100.392 22.9118 99.6539 23.1119C98.9586 23.3001 99.1611 23.938 99.1653 24.437C99.1695 24.9436 99.513 25.0712 99.9551 25.1578C101.318 25.4232 102.664 25.7931 104.034 26.0111C104.941 26.155 105.191 26.5815 105.171 27.4645C105.129 29.3303 106.178 30.2958 107.979 30.2412C108.791 30.2167 109.35 29.8937 109.652 29.131C109.994 28.2685 110.572 27.6409 111.477 27.2671C111.524 27.363 111.605 27.455 111.609 27.5496C111.7 29.6101 112.016 29.9464 114.049 30.2045C114.453 30.2557 114.721 30.1033 115.004 29.8422C115.502 29.3818 116.028 28.95 116.562 28.5323C116.742 28.393 117.148 28.2212 117.17 28.254C118.038 29.5662 119.787 28.0395 120.671 29.3696C120.822 29.5963 121.167 29.2172 121.328 29.0092C121.977 28.1643 122.365 27.2202 122.417 26.1283C122.436 25.7125 122.14 24.8936 122.839 24.994C123.576 25.1009 124.625 24.8005 125.017 25.8275C125.214 26.3417 125.274 26.9098 125.284 27.4851C125.306 28.7217 126.03 29.5269 127.224 29.8067C128.328 30.0655 129.366 30.2561 130.52 29.7628C131.402 29.3852 132.457 29.3455 133.44 29.3047C134.187 29.2741 134.452 28.9458 134.678 28.2891C135.072 27.1427 135.333 25.7877 137.014 25.8736C137.411 25.8935 137.775 25.9019 138.143 26.1535C139.488 27.0736 140.811 26.6372 141.306 25.0471C141.795 23.4799 142.137 21.8661 142.566 20.2787C142.677 19.8679 142.872 19.48 143.097 18.9074C143.582 21.3152 143.489 23.528 143.238 25.7366C143.017 27.6741 143.717 29.4665 144.056 31.3136C144.174 31.9584 144.311 32.4562 143.408 32.4203C142.948 32.402 142.706 32.6517 142.785 33.0862C142.99 34.2193 142.253 34.4858 141.427 34.5499C140.592 34.614 140.62 34.9771 140.738 35.6666C141.068 37.5999 141.331 39.5477 141.545 41.4982C141.76 43.4533 141.383 45.345 140.719 47.1794C140.124 48.8211 139.772 50.4993 139.883 52.2578L139.887 52.2486Z" fill="#CCCCCC" stroke="white" stroke-width="0.189915"/>
<path d="M13.0933 61.824C15.474 62.4761 17.6975 62.751 19.8927 62.7331C22.2186 62.7143 24.5699 62.3448 26.7968 61.5725C31.8096 59.8342 36.5563 60.7337 41.2924 62.7357C48.2521 65.6785 54.8622 69.295 61.4965 72.8963C66.2009 75.4508 71.2518 77.2192 76.5744 78.0633C80.0559 78.6161 83.6546 78.3294 87.0474 79.4945C91.2008 80.9205 95.4914 80.9094 99.7752 80.6761C103.74 80.4608 107.7 80.1329 111.669 79.9523C112.494 79.9153 113.317 79.7358 114.158 79.7389C114.859 79.7412 115.175 80.0076 115.17 80.7395C115.151 83.3215 115.409 85.9363 115.072 88.4724C114.859 90.077 114.525 91.7706 114.076 93.2919C113.377 95.6601 113.22 98.2978 111.563 100.352C110.581 101.568 109.684 102.86 109.224 104.386C109.016 105.074 108.505 104.898 108.059 104.907C103.661 105.001 99.3614 104.212 95.0806 103.335C92.206 102.745 89.2796 102.374 86.4824 101.43C83.7574 100.509 81.1386 99.3209 78.5735 98.0309C73.2176 95.3356 67.7793 92.7758 62.5977 89.7697C58.1208 87.1713 53.227 86.0313 48.3938 84.5852C46.3248 83.9651 44.2732 83.2905 42.8391 81.4989C42.7054 81.3309 42.5584 81.1675 42.3467 81.2465C41.6631 81.5046 41.1076 81.4523 40.4599 80.9881C40.1621 80.7743 39.539 81.2053 38.951 81.0091C37.1292 80.4017 35.621 79.304 34.1627 78.1224C31.2182 75.7375 28.8008 72.8841 26.736 69.6879C24.7807 66.6611 21.651 65.407 18.3773 64.5056C15.4725 63.7058 14.3471 63.2183 13.0933 61.824Z" fill="#CCCCCC" stroke="white" stroke-width="0.189915"/>
<path d="M142.15 52.6395C143.333 50.0866 144.331 47.4332 144.709 44.6615C144.922 43.0909 144.383 41.4172 144.189 39.7897C144.065 38.757 143.944 37.7231 143.841 36.6885C143.778 36.0536 144.045 35.7112 144.72 35.686C145.599 35.6535 146.168 35.2985 146.002 34.2646C145.973 34.084 146.047 33.7282 146.123 33.7133C147.762 33.3919 147.053 32.1878 146.918 31.3452C146.552 29.0564 146.772 26.7631 146.719 24.4736C146.698 23.547 146.663 22.6308 146.487 21.7187C146.439 21.4698 146.386 21.096 146.759 21.0147C147.179 20.9231 147.143 21.301 147.209 21.561C147.259 21.7554 147.377 21.9439 147.381 22.1364C147.407 23.5352 148.274 23.8654 149.377 23.5661C150.604 23.2332 152.011 23.7368 153.088 22.5208C153.58 21.9653 154.507 22.7155 155.273 22.6506C156.058 22.5842 156.694 22.7926 156.916 23.791C157.099 24.6171 157.913 24.5717 158.608 24.5587C159.343 24.545 159.388 24.0395 159.432 23.4814C159.463 23.0847 159.616 22.6976 159.639 22.3021C159.682 21.5366 160.059 21.298 160.749 21.5049C161.299 21.6691 161.835 21.8821 162.146 21.1235C162.183 21.0346 162.463 20.9464 162.554 20.9975C163.906 21.7576 164.821 20.4802 165.957 20.2538C166.429 20.1595 166.3 19.7526 166.204 19.3662C166.031 18.6759 165.32 18.0044 165.708 17.3199C166.253 16.3559 167.015 15.511 167.729 14.6528C168.001 14.3268 168.233 14.51 168.26 14.8906C168.415 17.0618 169.122 18.9936 170.42 20.7643C171.029 21.5981 170.592 22.7319 170.661 23.7272C170.698 24.2487 170.703 24.7786 170.659 25.2986C170.595 26.0465 170.904 26.3428 171.625 26.2584C172.485 26.158 172.777 26.526 172.853 27.4209C173.022 29.4123 173.305 31.3967 173.642 33.3671C173.735 33.905 173.658 34.3097 173.419 34.7304C172.09 37.0558 171.236 39.5339 170.941 42.2143C170.771 43.7552 171.235 45.2434 171.166 46.7815C170.994 50.5271 170.176 54.159 169.401 57.7984C169.032 59.5294 168.868 61.2745 168.739 63.0341C168.585 65.1484 168.356 67.2585 168.133 69.3674C168.037 70.268 167.637 71.0762 167.124 71.7936C166.193 73.0958 165.888 74.5741 165.894 76.1138C165.902 77.7168 165.676 79.3344 166.091 80.9264C166.146 81.1402 166.119 81.4552 165.997 81.6255C164.975 83.059 165.549 84.5758 165.785 86.0491C165.897 86.7546 165.762 86.9516 165.055 87.0284C162.632 87.291 160.201 87.1635 157.778 87.2712C153.915 87.4407 150.054 87.517 146.188 87.514C145.323 87.5132 144.982 87.3078 145.016 86.3713C145.142 82.867 144.476 79.4299 144.125 75.9626C143.649 71.2595 142.776 66.6186 142.199 61.935C141.916 59.631 141.836 57.301 141.687 54.9813C141.633 54.1632 142.026 53.4198 142.155 52.6303L142.15 52.6395Z" fill="#CCCCCC" stroke="white" stroke-width="0.189915"/>
<path d="M188.652 5.96668C189.445 6.84515 190.31 6.74207 190.682 5.67806C191.066 4.58045 191.381 3.65503 192.921 3.77414C193.992 3.85622 194.187 2.75785 194.299 1.8435C194.343 1.4915 194.137 0.887149 194.805 1.01848C195.249 1.10514 195.458 1.44683 195.345 2.03057C195.038 3.61303 195.118 3.65426 196.772 4.08109C197.296 4.21624 197.639 4.20249 197.646 3.54316C197.653 2.9789 197.941 2.66355 198.311 3.2198C199.586 5.14471 201.613 5.19893 203.546 5.51771C204.562 5.68493 205.58 5.84337 206.599 5.98501C206.901 6.02738 207.379 6.11443 207.398 5.70745C207.453 4.51058 208.296 4.80035 208.949 4.81791C210.208 4.85113 211.232 4.57472 212.355 3.78597C214.118 2.54826 216.263 2.94607 218.244 3.49506C219.939 3.96503 221.626 4.37963 223.396 4.32428C223.76 4.31321 224.077 4.38498 224.403 4.6045C226.284 5.87047 227.897 5.43105 228.884 3.41527C229.008 3.16253 229.118 2.90369 229.239 2.64981C229.42 2.27223 229.335 1.57893 229.79 1.57053C230.327 1.5606 230.339 2.25047 230.523 2.67921C230.704 3.10145 230.684 3.54087 230.72 3.98183C230.803 5.01988 231.358 5.86169 232.357 5.92163C233.5 5.98959 233.776 6.6199 233.796 7.49836C233.819 8.45929 234.06 8.80098 234.972 8.22947C235.208 8.08134 235.434 7.90686 235.769 8.29933C236.416 9.05792 237.188 8.78266 237.841 8.22794C238.467 7.69574 238.692 6.43817 239.487 6.51911C239.993 6.57103 240.333 7.7679 240.847 8.36461C242.104 9.82605 243.633 11.0008 245.052 12.2919C245.199 12.4256 245.429 12.4962 245.521 12.6554C246.24 13.892 247.334 14.1878 248.654 14.0118C249.287 13.9275 249.593 14.2443 249.67 14.8953C249.774 15.784 250.305 16.2353 251.175 16.5155C253.98 17.42 256.747 18.442 259.544 19.3739C260.294 19.624 260.415 19.895 259.871 20.4925C259.073 21.3664 258.263 21.8955 256.946 21.5817C255.924 21.3385 254.803 21.5294 253.726 21.5053C253.233 21.4947 253.081 21.7046 252.967 22.1952C252.134 25.8183 250.182 28.8118 247.749 31.5373C246.997 32.3791 246.297 32.4413 245.368 31.8202C243.348 30.4687 241.389 29.013 239.18 27.9635C236.795 26.83 234.317 26.5532 231.738 27.014C230.935 27.1572 230.192 27.0449 229.422 26.6891C227.476 25.7896 225.738 24.2885 223.548 24.0991C220.554 23.8403 217.71 22.992 214.823 22.2815C212.806 21.7852 211.285 23.0118 209.842 24.1304C207.532 25.921 205.067 27.2713 202.17 27.8318C200.638 28.128 199.233 28.811 198.271 30.1789C197.944 30.6435 197.455 30.9268 196.951 31.1937C196.136 31.6243 195.625 31.3911 195.197 30.605C194.294 28.9504 193.295 27.3488 192.429 25.6755C191.92 24.6939 191.148 24.1526 190.16 23.8907C189.127 23.6173 188.073 23.2707 187.023 23.2535C185.709 23.2321 184.588 23.0275 183.489 22.1952C182.666 21.5718 181.634 22.1135 180.752 22.4415C179.633 22.8565 178.528 23.3257 177.463 23.867C176.783 24.2133 176.503 23.9804 176.422 23.3474C176.332 22.6476 176.003 22.3796 175.31 22.4609C174.811 22.5197 174.363 22.2933 174.439 21.7367C174.605 20.5181 173.936 19.2238 174.939 18.0522C175.342 17.5803 174.679 17.0386 174.282 16.674C173.108 15.5966 172.556 14.2928 172.733 12.6882C172.771 12.3462 172.645 11.9094 173.183 11.8613C173.642 11.8193 173.666 12.1778 173.717 12.4996C173.902 13.6839 174.64 13.9782 175.753 14.0378C177.114 14.11 178.086 13.7599 179.058 12.7066C180.19 11.4814 181.664 10.5812 182.142 8.82847C182.232 8.49595 182.399 8.27184 182.836 8.41997C185.443 9.30378 187.025 7.71559 188.652 5.96668Z" fill="#33CACA" stroke="white" stroke-width="0.189915"/>
<path d="M122.688 150.555C122.242 151 121.467 150.903 121.098 151.521C121.408 151.936 121.745 151.69 122.067 151.602C122.383 151.516 122.745 151.416 122.915 151.784C123.441 152.92 124.266 153.273 125.517 152.653C125.53 152.759 125.544 152.864 125.558 152.969C122.558 156.756 119.558 160.543 116.357 164.583C116.203 162.68 115.352 161.522 114.237 160.502C113.601 159.92 113.586 159.165 114.169 158.578C114.775 157.971 114.864 157.354 114.804 156.531C114.656 154.483 114.818 152.432 115.012 150.387C115.212 148.28 114.754 146.319 113.691 144.482C113.013 143.31 112.607 142.129 113.57 140.817C114.228 139.922 114.167 138.732 114.247 137.67C114.351 136.308 114.702 135.067 115.347 133.89C115.606 133.418 115.887 133.096 115.08 132.728C114.008 132.239 113.896 131.049 113.856 130.012C113.782 128.113 113.738 126.228 112.809 124.504C112.657 124.22 112.767 123.966 112.811 123.689C113.134 121.711 113.445 119.731 113.75 117.749C113.814 117.333 113.997 116.895 113.396 116.637C112.506 116.256 112.144 115.423 111.925 114.55C111.72 113.735 111.464 112.893 111.484 112.07C111.519 110.632 111.23 109.381 109.911 108.271C113.526 107.786 116.888 107.822 120.235 108.102C122.021 108.251 123.822 107.998 125.594 108.405C125.98 108.494 126.322 108.522 126.284 109.017C126.202 110.076 126.923 110.491 127.703 110.872C130.31 112.148 133.133 112.682 135.935 113.263C138.618 113.819 141.305 114.391 144.055 114.505C144.617 114.528 144.807 114.848 144.948 115.299C146.741 121.051 148.525 126.807 150.349 132.549C150.576 133.261 150.336 133.541 149.766 133.868C145.058 136.566 140.242 139.075 135.688 142.044C134.233 142.992 134.158 142.965 134.847 144.453C135.079 144.953 134.736 144.923 134.545 145.019C134.01 145.284 133.473 145.589 132.902 145.733C130.344 146.373 129.191 148.623 127.59 150.363C127.256 150.728 127.076 151.618 126.451 151.223C125.803 150.813 125.159 150.069 126.374 149.196C124.612 149.495 124.612 149.495 125.355 151.589C123.413 152.104 123.204 151.965 123.136 150.105C123.034 149.973 122.973 149.832 123.005 149.661C123.027 149.546 123.07 149.446 123.086 149.437C122.796 149.682 122.927 150.197 122.688 150.555Z" fill="#CCCCCC" stroke="white" stroke-width="0.189915"/>
<path d="M202.874 57.8959C200.943 57.7986 199.102 57.9952 197.311 58.9046C196.204 59.4662 194.873 59.0928 193.645 59.076C193.061 59.0672 193.216 58.4991 193.202 58.1254C193.151 56.8025 193.273 55.4796 192.978 54.1595C192.623 52.5762 191.817 51.6371 190.238 51.6371C187.816 51.6371 185.391 51.7856 182.971 51.949C180.2 52.1353 177.449 52.5953 174.661 52.5808C174.084 52.5774 173.765 52.4449 173.779 51.778C173.803 50.4555 173.692 49.1643 174.558 47.9655C175.385 46.821 175.053 45.4351 174.644 44.2363C173.59 41.1413 174.255 38.4318 176.052 35.8357C177.528 33.7035 177.511 31.3361 176.574 29.0352C176.043 27.7314 176.333 27.1057 177.568 26.6949C178.018 26.5452 178.435 26.2864 178.854 26.0539C180.514 25.1334 182.038 24.2229 184.108 25.3865C185.281 26.0462 186.874 25.9695 188.288 26.1635C189.726 26.3608 190.626 27.1866 191.321 28.4232C192.323 30.2053 193.477 31.9015 194.458 33.6951C194.951 34.5976 195.55 34.6305 196.312 34.2781C196.852 34.028 197.404 33.752 197.859 33.3744C199.911 31.6706 202.161 30.434 204.726 29.6178C207.193 28.8321 209.368 27.3118 211.502 25.8439C212.838 24.925 214.122 24.8253 215.567 25.2877C217.12 25.7851 218.629 26.4307 220.254 26.6853C220.888 26.7842 220.837 27.1209 220.463 27.5104C220.435 27.539 220.402 27.5691 220.366 27.581C218.135 28.3461 217.635 30.3355 216.848 32.2753C215.378 35.8972 213.246 39.1809 210.708 42.1309C209.978 42.9815 210.06 43.9557 209.642 44.696C208.616 46.514 209.497 48.6382 208.418 50.357C208.211 50.6884 208.17 51.2874 207.752 51.2897C206.636 51.2965 206.837 52.0524 206.845 52.711C206.862 54.1236 206.753 55.4911 206.233 56.8464C205.913 57.6791 205.519 57.9982 204.67 57.9081C204.077 57.8451 203.472 57.8959 202.874 57.8959Z" fill="#CCCCCC" stroke="white" stroke-width="0.189915"/>
<path d="M204.928 115.265C206.367 115.552 207.46 116.266 208.307 117.221C210.096 119.238 212.217 119.741 214.773 119.197C215.853 118.966 216.943 119.53 218.024 119.736C220.906 120.289 223.773 120.924 226.635 121.574C227.194 121.7 227.276 121.583 227.641 121.095C228.453 120.007 228.261 118.88 228.282 117.735C228.291 117.183 228.368 116.913 229.03 117.11C230.323 117.498 231.64 117.805 232.949 118.138C233.515 118.282 233.522 118.609 233.444 119.139C233.063 121.73 232.182 124.19 231.57 126.719C231.284 127.901 231.904 128.674 233.125 128.786C234.267 128.889 235.397 129.127 236.54 129.217C237.212 129.27 237.419 129.534 237.405 130.191C237.371 131.844 237.38 133.497 237.402 135.151C237.41 135.736 237.251 135.988 236.608 136.057C235.309 136.198 234.721 136.832 234.787 138.116C234.838 139.119 234.493 139.624 233.547 139.796C232.522 139.983 232.191 140.474 232.511 141.59C232.738 142.381 233.029 143.496 231.627 143.76C231.001 143.879 231.273 144.283 231.448 144.572C231.823 145.188 232.241 145.778 232.643 146.377C233.135 147.109 233.374 147.843 232.576 148.518C232.177 148.856 232.24 149.187 232.47 149.573C232.962 150.4 233.415 151.252 233.939 152.056C234.35 152.689 234.204 153.049 233.567 153.379C233.024 153.658 232.613 154.274 232.018 153.344C231.578 152.658 231.083 151.806 229.933 152.208C229.675 152.297 229.261 152.019 228.95 151.849C227.233 150.914 225.513 149.982 223.825 148.996C223.37 148.731 223.053 148.554 222.55 148.917C221.949 149.35 221.294 149.056 220.988 148.53C220.027 146.872 218.673 145.805 216.961 144.966C215.44 144.222 214.065 143.141 212.75 142.027C212.149 141.518 211.464 141.357 210.662 141.338C207.432 141.261 204.215 141.502 200.993 141.617C200.081 141.65 199.819 141.397 199.74 140.423C199.455 136.876 199.254 133.325 198.692 129.795C198.176 126.549 197.566 123.328 196.844 120.13C196.61 119.092 197.009 119.057 197.765 119.088C199.49 119.161 201.161 118.798 202.81 118.35C203.962 118.038 204.728 117.388 204.579 116.026C204.542 115.689 204.496 115.25 204.928 115.265Z" fill="#CCCCCC" stroke="white" stroke-width="0.189915"/>
<path d="M168.301 82.6927C168.33 80.4062 168.097 78.1026 168.769 75.8585C169.103 74.7399 169.499 73.6694 170.077 72.6375C170.974 71.0336 171.172 69.261 171.002 67.414C170.794 65.1623 170.942 62.9217 171.579 60.731C171.995 59.3062 172.424 57.8788 172.359 56.3662C172.335 55.8328 172.497 55.5419 173.093 55.54C177.787 55.524 182.422 54.6299 187.114 54.5489C190.373 54.492 191.343 55.7767 191.531 58.8557C191.7 61.6393 191.114 64.2815 190.294 66.9013C189.923 68.0898 190.252 69.1522 191.123 69.9731C192.22 71.0069 192.705 72.2725 192.714 73.7358C192.718 74.2936 192.959 74.591 193.343 74.93C194.327 75.799 194.447 76.753 193.658 77.7937C193.28 78.2916 193.206 78.7921 193.207 79.3647C193.214 81.663 193.188 83.9613 193.222 86.2585C193.233 86.9842 193.01 87.258 192.271 87.2469C189.483 87.206 186.702 87.4439 183.918 87.5294C179.744 87.6577 175.576 87.9623 171.397 87.9715C171.358 87.9715 171.316 87.9715 171.277 87.9746C168.31 88.2124 168.309 88.2124 168.302 85.2326C168.3 84.3859 168.301 83.5395 168.301 82.6927Z" fill="#CCCCCC" stroke="white" stroke-width="0.189915"/>
<path d="M143.461 112.182C140.555 111.984 137.743 111.216 134.905 110.605C133.389 110.28 131.866 109.989 130.343 109.705C129.761 109.597 128.99 109.886 128.907 108.861C127.254 108.925 127.221 107.775 127.262 106.511C127.274 106.132 126.876 106.139 126.604 106.15C125.126 106.211 123.673 105.903 122.196 105.867C118.849 105.785 115.505 105.548 112.154 105.649C111.335 105.674 111.204 105.385 111.469 104.608C112.145 102.62 112.899 100.702 114.642 99.4385C114.873 99.2699 115.059 99.0534 115.093 98.7311C115.369 96.1311 116.707 93.7179 116.32 90.9997C116.22 90.3014 116.528 90.0528 117.205 90.0457C118.337 90.033 119.409 90.3328 120.506 90.531C123.194 91.0148 125.896 90.962 128.597 90.6103C128.795 90.5846 128.995 90.5786 129.194 90.5738C132.901 90.4834 136.615 90.5239 140.311 90.2661C143.343 90.0552 146.368 90.1091 149.395 90.0667C150.737 90.0485 151.114 90.4319 151.298 91.8843C151.553 93.888 151.301 95.8642 150.939 97.8199C150.499 100.204 150.262 102.55 150.757 104.985C151.309 107.702 149.362 110.825 146.749 111.62C145.688 111.944 144.595 112.236 143.461 112.182Z" fill="#33CACA" stroke="white" stroke-width="0.189915"/>
<path d="M201.664 171.972C200.205 171.82 198.625 171.646 197.113 172.318C196.825 172.445 196.542 172.411 196.361 172.149C195.208 170.474 193.506 171.445 192.053 171.242C191.734 171.198 191.703 171.513 191.835 171.761C191.986 172.043 192.155 172.318 192.341 172.578C193.028 173.538 193.095 174.26 191.854 174.903C190.928 175.381 190.499 176.462 189.908 177.301C189.35 178.095 189.161 177.803 188.758 177.235C188.041 176.225 188.203 175.006 187.893 173.902C187.592 172.825 187.419 171.711 187.191 170.613C187.066 170.004 186.966 169.439 187.694 169.073C188.438 168.7 187.899 168.112 187.738 167.717C186.889 165.634 185.965 163.584 185.073 161.521C184.579 160.378 184.098 159.23 183.609 158.086C183.242 157.227 182.785 156.438 182.068 155.815C181.819 155.599 181.371 155.24 181.842 154.947C183.135 154.144 181.924 153.397 181.831 152.65C181.78 152.245 181.357 152.376 181.034 152.476C180.515 152.634 179.99 152.698 179.694 152.081C179.542 151.764 179.197 151.447 179.35 151.097C179.53 150.687 179.994 150.872 180.321 150.89C183.788 151.066 186.971 150.254 189.721 148.068C191.499 146.654 193.035 144.94 194.982 143.734C195.289 143.545 195.591 143.353 195.897 143.164C196.397 142.857 196.912 142.31 197.006 143.524C197.046 144.043 197.659 143.833 198.028 143.852C201.377 144.028 204.714 143.673 208.058 143.588C209.423 143.554 210.195 143.883 210.747 145.277C211.758 147.833 211.841 147.868 209.148 147.953C208.424 147.976 208.026 148.214 208.211 148.929C208.615 150.494 207.14 151.67 207.42 153.224C207.511 153.727 206.952 153.539 206.609 153.568C205.91 153.625 205.209 152.857 204.486 153.897C203.559 155.227 203.348 156.479 204.048 157.886C204.277 158.344 204.638 158.747 204.992 159.123C205.401 159.559 205.769 159.918 205.254 160.554C204.933 160.95 205.32 161.313 205.552 161.616C205.989 162.188 206.502 162.701 206.919 163.286C207.387 163.943 208.304 164.54 207.338 165.51C207.116 165.733 207.324 166.041 207.441 166.298C207.84 167.177 208.287 168.037 208.611 168.942C208.915 169.788 209.345 170.252 210.268 169.904C210.618 169.772 210.764 169.935 210.928 170.207C212.119 172.171 211.757 172.913 209.525 173.155C208.541 173.262 207.57 173.474 206.591 173.624C205.831 173.742 205.506 173.445 205.535 172.626C205.552 172.164 205.865 171.475 205.171 171.264C204.669 171.111 204.19 171.145 203.728 171.73C203.309 172.26 202.441 171.835 201.664 171.972Z" fill="#CCCCCC" stroke="white" stroke-width="0.189915"/>
<path d="M193.85 157.95C193.665 157.95 193.501 157.923 193.357 157.868C193.221 157.814 193.118 157.735 193.05 157.632C193.056 157.783 193.06 158.043 193.06 158.412V161.13H192.209V158.422C192.209 157.752 192.174 157.171 192.106 156.679C192.038 156.186 191.901 155.588 191.696 154.884L192.516 154.597L192.978 156.392C193.101 156.843 193.371 157.068 193.788 157.068C194.007 157.068 194.191 157 194.342 156.863C194.499 156.727 194.578 156.556 194.578 156.35C194.578 156.091 194.513 155.568 194.383 154.781L195.234 154.597C195.371 155.438 195.439 156.026 195.439 156.361C195.439 156.662 195.371 156.935 195.234 157.181C195.097 157.42 194.906 157.608 194.66 157.745C194.42 157.882 194.15 157.95 193.85 157.95ZM198.989 156.125C199.324 156.125 199.645 156.221 199.953 156.412C200.267 156.597 200.517 156.843 200.701 157.15C200.893 157.451 200.988 157.769 200.988 158.104C200.988 158.439 200.893 158.761 200.701 159.068C200.517 159.376 200.267 159.625 199.953 159.817C199.645 160.001 199.324 160.094 198.989 160.094C198.654 160.094 198.329 159.998 198.014 159.807C197.707 159.615 197.457 159.369 197.266 159.068C197.074 158.761 196.979 158.439 196.979 158.104C196.979 157.769 197.074 157.451 197.266 157.15C197.457 156.843 197.707 156.597 198.014 156.412C198.329 156.221 198.654 156.125 198.989 156.125ZM198.989 159.273C199.18 159.273 199.365 159.219 199.542 159.109C199.727 158.993 199.877 158.846 199.994 158.668C200.11 158.484 200.168 158.296 200.168 158.104C200.168 157.92 200.11 157.738 199.994 157.561C199.877 157.376 199.727 157.229 199.542 157.12C199.365 157.003 199.18 156.945 198.989 156.945C198.797 156.945 198.609 157.003 198.425 157.12C198.24 157.229 198.09 157.376 197.973 157.561C197.857 157.738 197.799 157.92 197.799 158.104C197.799 158.296 197.857 158.484 197.973 158.668C198.09 158.846 198.24 158.993 198.425 159.109C198.609 159.219 198.797 159.273 198.989 159.273Z" fill="black"/>
<path d="M213.749 130.934C213.749 130.264 213.715 129.683 213.646 129.191C213.578 128.698 213.441 128.1 213.236 127.396L214.067 127.109C214.279 127.806 214.419 128.415 214.487 128.934C214.562 129.447 214.6 130.11 214.6 130.924V133.642H213.749V130.934ZM216.253 131.867C216.253 131.32 216.424 130.75 216.766 130.155C217.107 129.553 217.672 128.869 218.458 128.104L217.966 127.673L218.499 127.027C219.353 127.697 220.023 128.292 220.509 128.811C221.001 129.331 221.353 129.82 221.565 130.278C221.777 130.736 221.883 131.208 221.883 131.693C221.883 132.083 221.808 132.428 221.657 132.729C221.507 133.023 221.302 133.248 221.042 133.406C220.789 133.563 220.509 133.642 220.201 133.642C219.928 133.642 219.688 133.601 219.483 133.519C219.285 133.436 219.128 133.324 219.012 133.18C218.895 133.324 218.735 133.436 218.53 133.519C218.331 133.601 218.109 133.642 217.863 133.642C217.357 133.642 216.96 133.484 216.673 133.17C216.393 132.855 216.253 132.421 216.253 131.867ZM221.032 131.714C221.032 131.208 220.875 130.715 220.56 130.237C220.252 129.758 219.753 129.225 219.063 128.637C218.393 129.252 217.897 129.816 217.576 130.329C217.261 130.835 217.104 131.331 217.104 131.816C217.104 132.131 217.172 132.367 217.309 132.524C217.453 132.681 217.658 132.76 217.924 132.76C218.191 132.76 218.396 132.681 218.54 132.524C218.69 132.367 218.765 132.151 218.765 131.878V131.17H219.535V131.857C219.535 132.09 219.507 132.288 219.453 132.452C219.61 132.657 219.859 132.76 220.201 132.76C220.44 132.76 220.639 132.667 220.796 132.483C220.953 132.291 221.032 132.035 221.032 131.714Z" fill="black"/>
<path d="M172.028 120.158C172.865 120.155 173.693 120.141 174.519 120.374C175.145 120.55 175.655 120.386 175.544 119.549C175.431 118.699 175.977 118.857 176.427 118.985C178.874 119.675 181.376 119.871 183.884 119.66C186.374 119.45 188.843 119.04 191.336 118.809C192.472 118.704 193.559 118.781 194.648 118.999C195.327 119.135 195.528 119.753 195.665 120.361C196.265 123.023 196.631 125.725 196.982 128.427C197.419 131.806 197.85 135.187 198.078 138.59C198.136 139.459 197.989 139.955 197.021 140.222C195.079 140.758 193.545 142.027 192.293 143.571C189.309 147.254 185.247 148.124 180.852 148.244C179.953 148.268 179.854 148.046 180.223 147.231C181.747 143.863 181.681 143.879 179.727 140.725C178.163 138.202 176.725 135.601 175.221 133.04C174.604 131.988 174.456 130.995 175.239 129.914C175.916 128.979 175.416 128.035 174.92 127.209C174.28 126.143 173.486 125.184 172.595 124.307C171.74 123.465 170.864 122.642 170.163 121.648C169.89 121.261 169.657 120.894 169.866 120.438C170.06 120.017 170.491 120.182 170.831 120.162C171.228 120.139 171.629 120.156 172.028 120.158Z" fill="#33CACA" stroke="white" stroke-width="0.189915"/>
<path d="M183.05 117.173C180.872 117.216 180.869 117.215 181.103 115.554C182.218 107.656 183.335 99.7595 184.455 91.8629C184.849 89.074 184.849 89.1786 187.647 89.3095C191.387 89.4844 195.125 89.2023 198.858 88.932C200.05 88.8445 201.252 88.8915 202.449 88.8564C203.08 88.8377 203.163 89.2232 203.142 89.7196C203.049 91.8491 203.002 93.9809 202.858 96.1063C202.681 98.7077 202.403 101.301 202.207 103.901C201.926 107.636 201.818 111.378 202.041 115.121C202.075 115.691 201.733 115.688 201.37 115.714C197.961 115.965 194.551 116.195 191.145 116.466C188.254 116.695 185.367 116.97 183.05 117.173Z" fill="#CCCCCC" stroke="white" stroke-width="0.189915"/>
<path d="M219.877 82.8133C216.491 83.3813 213.734 84.9669 210.841 86.1866C209.521 86.7448 208.123 86.8784 206.758 86.9349C203.458 87.072 200.158 87.3453 196.847 87.2568C196.067 87.2358 195.784 87.012 195.829 86.2179C195.967 83.7704 195.585 81.3033 196.059 78.8699C196.197 78.1636 196.504 77.4925 196.667 76.7911C196.895 75.8092 196.945 74.8559 195.867 74.2752C195.42 74.0343 195.359 73.5961 195.358 73.1299C195.355 71.7269 194.842 70.5323 193.82 69.5908C192.987 68.8223 192.785 67.9797 193.131 66.8745C193.5 65.6929 193.709 64.4579 193.961 63.2404C194.104 62.5497 194.423 62.2 195.183 62.2829C195.813 62.352 196.46 62.3321 197.095 62.2894C198.23 62.2119 199.363 62.2542 200.197 61.1364C200.635 60.5511 201.535 60.7657 202.22 60.8127C204.161 60.947 206.096 61.1452 208.03 61.3552C210.944 61.6713 213.856 62.0183 216.989 62.3779C215.978 63.8951 215.21 65.4207 214.101 66.6252C212.403 68.4688 212.65 70.1219 213.728 72.1797C215.59 75.7355 217.299 79.3689 219.877 82.8133Z" fill="#CCCCCC" stroke="white" stroke-width="0.189915"/>
<path d="M229.245 97.6751C228.954 101.726 228.609 106.239 228.311 110.755C228.176 112.798 228.127 114.845 228.048 116.891C228.004 118.061 226.678 119.163 225.557 118.951C222.402 118.353 219.302 117.5 216.133 116.958C214.743 116.72 213.359 116.985 211.973 116.732C210.294 116.426 209.147 115.309 207.944 114.283C207.087 113.554 206.161 113.063 205.061 112.982C204.471 112.938 204.296 112.679 204.335 112.145C204.55 109.23 204.743 106.314 204.982 103.401C205.114 101.803 205.002 100.197 205.253 98.5959C205.379 97.7926 205.598 97.5285 206.405 97.4567C210.23 97.1116 214.047 96.6691 217.87 96.3007C220.789 96.0185 223.713 95.7921 226.635 95.5421C226.833 95.526 227.035 95.5421 227.232 95.5123C229.252 95.2 229.252 95.1981 229.245 97.6751Z" fill="#CCCCCC" stroke="white" stroke-width="0.189915"/>
<path d="M257.585 70.9576C257.628 71.5601 257.278 71.5856 256.891 71.6177C254.003 71.8548 251.084 71.9178 248.239 72.4122C246.229 72.7615 244.307 73.6659 242.367 74.3821C236.198 76.6594 230.042 78.9737 223.874 81.2526C221.846 82.0024 221.864 81.957 220.811 80.0427C219.148 77.0183 217.468 74.0023 215.741 71.0149C215.214 70.1047 215.055 69.3709 215.691 68.4043C216.816 66.6997 217.826 64.9137 218.803 63.1163C219.273 62.252 219.884 62.0607 220.765 62.2336C226.49 63.3564 232.257 64.2929 237.93 65.6391C241.605 66.5107 245.315 66.6241 249.014 67.052C251.413 67.3303 253.836 67.6121 256.008 68.8655C256.875 69.3652 257.317 70.1219 257.585 70.9576Z" fill="#CCCCCC" stroke="white" stroke-width="0.189915"/>
<path d="M165.113 91.3359C164.877 90.3712 165.368 90.0032 166.602 90.0539C171.102 90.2418 175.595 89.6756 180.098 89.8195C180.763 89.8405 181.433 89.6634 182.103 89.6C182.767 89.5359 183.008 89.7638 182.888 90.5109C182.403 93.5094 181.986 96.5189 181.541 99.5235C180.944 103.557 180.345 107.591 179.745 111.624C179.505 113.245 179.254 114.866 179.022 116.488C178.951 116.98 178.667 117.233 178.211 117.172C176.761 116.978 175.317 116.741 173.869 116.524C173.442 116.459 173.348 116.167 173.234 115.783C172.792 114.286 172.655 114.263 171.231 114.946C170.305 115.39 169.521 116.085 168.452 116.302C167.718 116.452 167.561 116.314 167.497 115.616C167.303 113.506 167.032 111.404 166.815 109.296C166.496 106.193 166.19 103.089 165.895 99.9828C165.631 97.1928 165.39 94.4012 165.113 91.3359Z" fill="#CCCCCC" stroke="white" stroke-width="0.189915"/>
<path d="M244.344 75.6004C243.072 77.9537 241.863 80.2997 240.83 82.7362C239.717 85.3636 238.405 87.9085 237.297 90.5313C236.444 92.5497 235.095 93.1877 233.108 93.2957C228.628 93.5412 224.164 93.9864 219.701 94.4628C217.016 94.7503 209.03 96.0655 206.341 96.3003C205.894 96.3396 205.782 96.1128 205.783 95.733C205.79 93.7161 205.795 91.6995 205.801 89.683C205.802 89.0962 206.257 89.0069 206.67 88.8503C212.819 86.5161 224.257 83.0301 230.406 80.6933C234.728 79.0501 239.05 77.4093 243.374 75.7688C243.661 75.6607 243.939 75.4889 244.344 75.6004Z" fill="#CCCCCC" stroke="white" stroke-width="0.189915"/>
<path d="M169.042 139.515C168.064 140.007 167.255 140.383 166.48 140.817C165.979 141.098 165.724 141.059 165.394 140.515C164.05 138.299 164.031 138.332 161.603 139.142C160.696 139.444 159.926 139.93 159.269 140.61C158.835 141.059 158.484 141.319 158.279 140.439C158.226 140.217 158.077 140.018 157.979 139.805C157.375 138.502 156.772 138.231 155.396 138.543C154.825 138.673 154.909 139.073 154.916 139.444C154.928 140.053 154.73 140.456 154.063 140.412C153.196 140.354 153.013 140.847 153.048 141.588C153.077 142.212 153.054 142.837 152.979 143.473C152.418 142.353 152.358 141.105 152.159 139.914C151.72 137.291 151.21 136.94 148.846 137.954C148.714 138.01 148.563 138.024 148.378 138.067C149 136.812 150.922 135.498 152.238 135.498C152.919 135.499 153.401 135.284 153.86 134.792C155.215 133.34 156.838 132.199 158.337 130.913C159.947 129.533 161.11 127.78 162.348 126.084C163.463 124.558 164.883 123.475 166.721 122.986C167.062 122.894 167.347 122.758 167.668 123.083C169.251 124.687 170.784 126.327 172.129 128.154C172.931 129.246 172.746 130.266 172.19 131.28C171.685 132.2 171.854 132.901 172.406 133.74C174.333 136.664 176.179 139.642 178.065 142.594C178.65 143.511 178.762 144.434 178.411 145.493C177.444 148.414 177.471 148.423 174.379 148.423C174.185 148.423 173.989 148.4 173.798 148.427C172.691 148.584 172.21 148.134 172.348 146.985C172.408 146.482 172.332 145.965 172.364 145.458C172.421 144.551 172.373 143.783 171.319 143.39C170.554 143.104 170.671 142.214 170.515 141.556C170.421 141.159 170.412 140.684 169.921 140.702C169.135 140.731 169.066 140.228 169.042 139.515Z" fill="#CCCCCC" stroke="white" stroke-width="0.189915"/>
<path d="M159.811 90.0773C161.223 90.0773 160.75 90.1135 161.785 90.0654C162.499 90.0315 162.813 90.338 162.875 91.0149C163.201 94.57 163.532 98.1236 163.86 101.679C164.041 103.636 164.155 105.602 164.428 107.547C164.578 107.853 164.278 108.592 163.423 109.139C160.785 110.824 159.48 111.239 156.485 110.317C155.23 109.93 153.974 109.543 152.726 109.133C151.865 108.851 151.294 108.336 151.705 107.337C152.226 106.07 152.345 105.603 152.219 104.19C152.073 102.551 152.515 100.849 152.763 99.1845C153.118 96.8118 153.599 94.4692 152.966 92.0453C152.636 90.7878 152.989 90.4113 154.227 90.3575C156.213 90.2701 158.187 89.8837 159.811 90.0773Z" fill="#CCCCCC" stroke="white" stroke-width="0.189915"/>
<path d="M166.337 114.892C166.337 115.296 166.294 115.705 166.346 116.101C166.444 116.818 165.925 117.914 166.694 118.175C167.654 118.499 168.825 118.546 169.826 117.959C170.273 117.697 170.67 117.346 171.123 117.099C171.525 116.88 172.051 116.495 172.418 116.831C172.748 117.133 172.58 117.754 172.504 118.223C172.407 118.819 171.901 118.748 171.465 118.78C170.356 118.859 169.25 118.962 168.141 119.04C166.78 119.137 165.854 120.088 164.797 120.776C164.197 121.166 163.632 121.615 163.043 122.025C161.799 122.893 160.822 123.878 160.118 125.353C158.859 127.988 156.797 130.036 154.286 131.563C153.01 132.338 152.708 132.296 152.121 130.941C149.868 125.734 148.287 120.303 146.958 114.793C146.761 113.973 147.03 113.448 147.838 112.948C149.896 111.673 151.788 111.354 154.16 112.391C157.903 114.028 161.764 113.891 165.426 111.839C166.228 111.389 166.377 111.72 166.345 112.476C166.311 113.28 166.337 114.087 166.337 114.892Z" fill="#CCCCCC" stroke="white" stroke-width="0.189915"/>
<path d="M213.749 105.355C213.749 104.685 213.715 104.104 213.646 103.612C213.578 103.12 213.441 102.521 213.236 101.817L214.067 101.53C214.279 102.227 214.419 102.836 214.487 103.355C214.562 103.868 214.6 104.531 214.6 105.345V108.063H213.749V105.355ZM218.232 104.34C218.13 104.217 218.051 104.066 217.996 103.889C217.942 103.704 217.914 103.519 217.914 103.335C217.914 103.007 217.996 102.706 218.16 102.432C218.331 102.152 218.56 101.933 218.847 101.776C219.141 101.612 219.466 101.53 219.822 101.53C220.225 101.53 220.652 101.632 221.104 101.838L220.868 102.617C220.499 102.46 220.16 102.381 219.853 102.381C219.531 102.381 219.268 102.48 219.063 102.679C218.865 102.877 218.765 103.12 218.765 103.407C218.765 103.707 218.847 103.96 219.012 104.166C219.182 104.364 219.384 104.463 219.617 104.463C220.068 104.463 220.587 104.333 221.175 104.073L221.401 104.853C220.697 105.181 219.996 105.345 219.299 105.345C218.909 105.345 218.557 105.301 218.242 105.212C217.935 105.116 217.689 104.993 217.504 104.842C217.511 104.965 217.514 105.164 217.514 105.437V108.063H216.663V105.355C216.663 104.685 216.629 104.104 216.561 103.612C216.492 103.12 216.355 102.521 216.15 101.817L216.971 101.53C217.142 102.145 217.292 102.826 217.422 103.571C217.456 103.755 217.531 103.913 217.648 104.043C217.771 104.172 217.966 104.272 218.232 104.34Z" fill="black"/>
<path d="M222.44 88.1754C222.44 87.5054 222.406 86.9242 222.338 86.432C222.269 85.9397 222.132 85.3415 221.927 84.6373L222.758 84.3501C222.97 85.0475 223.11 85.656 223.178 86.1756C223.254 86.6884 223.291 87.3515 223.291 88.1651V90.8828H222.44V88.1754ZM228.38 84.3501C228.51 85.15 228.575 85.738 228.575 86.1141C228.575 86.2029 228.561 86.3157 228.534 86.4525C228.711 86.6986 228.947 86.8217 229.241 86.8217C229.453 86.8217 229.634 86.7533 229.785 86.6166C229.935 86.4798 230.01 86.3089 230.01 86.1038C230.01 85.844 229.945 85.321 229.816 84.5347L230.657 84.3501C230.793 85.1295 230.862 85.7175 230.862 86.1141C230.862 86.4149 230.793 86.6884 230.657 86.9345C230.52 87.1738 230.332 87.3618 230.092 87.4985C229.86 87.6353 229.597 87.7036 229.303 87.7036C229.057 87.7036 228.831 87.6592 228.626 87.5703C228.428 87.4814 228.27 87.3584 228.154 87.2011C228.045 87.3584 227.888 87.4814 227.682 87.5703C227.477 87.6592 227.248 87.7036 226.995 87.7036C226.811 87.7036 226.647 87.6763 226.503 87.6216C226.366 87.5669 226.264 87.4883 226.195 87.3857C226.202 87.5361 226.206 87.7959 226.206 88.1651V90.8828H225.354V88.1754C225.354 87.5054 225.32 86.9242 225.252 86.432C225.184 85.9397 225.047 85.3415 224.842 84.6373L225.662 84.3501L226.124 86.1448C226.247 86.5961 226.517 86.8217 226.934 86.8217C227.153 86.8217 227.337 86.7533 227.488 86.6166C227.645 86.4798 227.723 86.3089 227.723 86.1038C227.723 85.844 227.659 85.321 227.529 84.5347L228.38 84.3501Z" fill="black"/>
<path d="M229.426 67.5827C229.624 68.7723 229.901 69.856 230.257 70.8336C230.619 71.8045 231.091 72.7446 231.672 73.6539L230.974 74.1666C230.475 73.3872 230.058 72.5771 229.723 71.7361C229.388 70.8883 229.149 70.0405 229.005 69.1928C228.67 71.0593 228.034 72.7172 227.098 74.1666L226.359 73.6539C226.913 72.8129 227.371 71.907 227.734 70.9362C228.096 69.9585 228.393 68.8407 228.626 67.5827H229.426Z" fill="black"/>
<path d="M204.431 77.1387C204.239 75.949 203.962 74.8688 203.6 73.898C203.238 72.9271 202.762 71.9802 202.174 71.0572L202.882 70.5547C203.374 71.3273 203.788 72.1375 204.123 72.9852C204.458 73.8262 204.701 74.674 204.851 75.5286C205.166 73.6894 205.801 72.0315 206.759 70.5547L207.487 71.0572C206.933 71.905 206.475 72.8177 206.112 73.7954C205.757 74.7663 205.463 75.8807 205.231 77.1387H204.431Z" fill="black"/>
<path d="M182.174 72.176C181.251 72.9417 180.345 74.1143 179.456 75.6936L178.738 75.2937C178.984 74.8493 179.268 74.398 179.589 73.9399C179.911 73.475 180.225 73.0751 180.533 72.7401C180.396 72.7879 180.239 72.8118 180.061 72.8118C179.507 72.8118 179.073 72.6546 178.758 72.3401C178.451 72.0256 178.297 71.6051 178.297 71.0787C178.297 70.7232 178.379 70.3916 178.543 70.0839C178.707 69.7762 178.929 69.5335 179.21 69.3558C179.497 69.1712 179.808 69.0789 180.143 69.0789C180.369 69.0789 180.577 69.1062 180.769 69.1609C180.967 69.2088 181.179 69.2908 181.404 69.4071L181.107 70.1147C180.799 69.9916 180.488 69.9301 180.174 69.9301C179.887 69.9301 179.644 70.0361 179.446 70.248C179.247 70.4531 179.148 70.7027 179.148 70.9966C179.148 71.3111 179.24 71.5504 179.425 71.7145C179.61 71.8786 179.88 71.9606 180.235 71.9606C180.707 71.9606 181.22 71.8273 181.774 71.5607L182.174 72.176Z" fill="black"/>
<path d="M194.856 38.5369C194.986 39.3368 195.051 39.9248 195.051 40.3008C195.051 40.3897 195.037 40.5025 195.01 40.6392C195.188 40.8854 195.424 41.0084 195.718 41.0084C195.929 41.0084 196.111 40.9401 196.261 40.8033C196.411 40.6666 196.487 40.4957 196.487 40.2906C196.487 40.0308 196.422 39.5077 196.292 38.7215L197.133 38.5369C197.27 39.3163 197.338 39.9043 197.338 40.3008C197.338 40.6016 197.27 40.8751 197.133 41.1213C196.996 41.3605 196.808 41.5486 196.569 41.6853C196.336 41.822 196.073 41.8904 195.779 41.8904C195.533 41.8904 195.307 41.846 195.102 41.7571C194.904 41.6682 194.747 41.5451 194.63 41.3879C194.521 41.5451 194.364 41.6682 194.159 41.7571C193.954 41.846 193.725 41.8904 193.472 41.8904C193.287 41.8904 193.123 41.8631 192.979 41.8084C192.843 41.7537 192.74 41.675 192.672 41.5725C192.679 41.7229 192.682 41.9827 192.682 42.3519V45.0696H191.831V42.3622C191.831 41.6921 191.797 41.111 191.728 40.6187C191.66 40.1265 191.523 39.5282 191.318 38.824L192.138 38.5369L192.6 40.3316C192.723 40.7828 192.993 41.0084 193.41 41.0084C193.629 41.0084 193.813 40.9401 193.964 40.8033C194.121 40.6666 194.2 40.4957 194.2 40.2906C194.2 40.0308 194.135 39.5077 194.005 38.7215L194.856 38.5369Z" fill="black"/>
<path d="M247.061 51.273C246.958 51.15 246.88 50.9995 246.825 50.8218C246.77 50.6372 246.743 50.4526 246.743 50.268C246.743 49.9398 246.825 49.639 246.989 49.3655C247.16 49.0852 247.389 48.8664 247.676 48.7092C247.97 48.5451 248.295 48.463 248.651 48.463C249.054 48.463 249.481 48.5656 249.932 48.7707L249.697 49.5501C249.327 49.3929 248.989 49.3142 248.681 49.3142C248.36 49.3142 248.097 49.4134 247.892 49.6116C247.693 49.8099 247.594 50.0526 247.594 50.3398C247.594 50.6406 247.676 50.8936 247.84 51.0987C248.011 51.2969 248.213 51.3961 248.445 51.3961C248.897 51.3961 249.416 51.2662 250.004 51.0064L250.23 51.7858C249.526 52.114 248.825 52.278 248.128 52.278C247.738 52.278 247.386 52.2336 247.071 52.1447C246.764 52.049 246.517 51.9259 246.333 51.7755C246.34 51.8986 246.343 52.0969 246.343 52.3703V54.9957H245.492V52.2883C245.492 51.6183 245.458 51.0371 245.389 50.5449C245.321 50.0526 245.184 49.4544 244.979 48.7502L245.8 48.463C245.97 49.0784 246.121 49.7586 246.251 50.5039C246.285 50.6885 246.36 50.8457 246.476 50.9756C246.599 51.1055 246.794 51.2046 247.061 51.273Z" fill="black"/>
<path d="M211.726 13.8212C211.726 13.1511 211.692 12.5768 211.623 12.0982C211.555 11.6197 211.418 11.0419 211.213 10.3651L212.485 9.9241C212.703 10.601 212.847 11.206 212.915 11.7393C212.991 12.2657 213.028 12.9529 213.028 13.8006V16.4363H211.726V13.8212Z" fill="white"/>
<path d="M72.9237 54.8708C72.7391 54.8708 72.5751 54.8434 72.4315 54.7887C72.2947 54.734 72.1922 54.6554 72.1238 54.5528C72.1307 54.7032 72.1341 54.9631 72.1341 55.3322V58.0499H71.2829V55.3425C71.2829 54.6725 71.2487 54.0913 71.1803 53.5991C71.112 53.1068 70.9752 52.5086 70.7701 51.8044L71.5905 51.5172L72.052 53.3119C72.1751 53.7632 72.4452 53.9888 72.8622 53.9888C73.081 53.9888 73.2656 53.9204 73.416 53.7837C73.5733 53.6469 73.6519 53.476 73.6519 53.2709C73.6519 53.0111 73.5869 52.4881 73.457 51.7018L74.3082 51.5172C74.445 52.3582 74.5133 52.9462 74.5133 53.2812C74.5133 53.582 74.445 53.8555 74.3082 54.1016C74.1715 54.3409 73.98 54.5289 73.7339 54.6656C73.4946 54.8024 73.2246 54.8708 72.9237 54.8708ZM78.0014 54.8708C77.8168 54.8708 77.6527 54.8434 77.5091 54.7887C77.3724 54.734 77.2698 54.6554 77.2014 54.5528C77.2083 54.7032 77.2117 54.9631 77.2117 55.3322V58.0499H76.3605V55.3425C76.3605 54.6725 76.3263 54.0913 76.258 53.5991C76.1896 53.1068 76.0528 52.5086 75.8477 51.8044L76.6682 51.5172L77.1297 53.3119C77.2527 53.7632 77.5228 53.9888 77.9398 53.9888C78.1586 53.9888 78.3432 53.9204 78.4936 53.7837C78.6509 53.6469 78.7295 53.476 78.7295 53.2709C78.7295 53.0111 78.6646 52.4881 78.5346 51.7018L79.3858 51.5172C79.5226 52.3582 79.591 52.9462 79.591 53.2812C79.591 53.582 79.5226 53.8555 79.3858 54.1016C79.2491 54.3409 79.0577 54.5289 78.8115 54.6656C78.5723 54.8024 78.3022 54.8708 78.0014 54.8708Z" fill="black"/>
<path d="M75.1913 87.7036C75.0067 87.7036 74.8426 87.6763 74.6991 87.6216C74.5623 87.5669 74.4598 87.4883 74.3914 87.3857C74.3982 87.5361 74.4017 87.7959 74.4017 88.1651V90.8828H73.5505V88.1754C73.5505 87.5054 73.5163 86.9242 73.4479 86.432C73.3795 85.9397 73.2428 85.3415 73.0377 84.6373L73.8581 84.3501L74.3196 86.1448C74.4427 86.5961 74.7127 86.8217 75.1298 86.8217C75.3486 86.8217 75.5332 86.7533 75.6836 86.6166C75.8408 86.4798 75.9195 86.3089 75.9195 86.1038C75.9195 85.844 75.8545 85.321 75.7246 84.5347L76.5758 84.3501C76.7125 85.1911 76.7809 85.779 76.7809 86.1141C76.7809 86.4149 76.7125 86.6884 76.5758 86.9345C76.4391 87.1738 76.2476 87.3618 76.0015 87.4985C75.7622 87.6353 75.4921 87.7036 75.1913 87.7036ZM78.6281 88.1754C78.6281 87.5054 78.5939 86.9242 78.5255 86.432C78.4572 85.9397 78.3204 85.3415 78.1153 84.6373L78.946 84.3501C79.1579 85.0475 79.2981 85.656 79.3665 86.1756C79.4417 86.6884 79.4793 87.3515 79.4793 88.1651V90.8828H78.6281V88.1754Z" fill="black"/>
<path d="M121.132 60.4752C121.132 59.9283 121.303 59.3574 121.645 58.7626C121.987 58.1609 122.551 57.4772 123.337 56.7115L122.845 56.2807L123.378 55.6347C124.232 56.3047 124.903 56.8995 125.388 57.4191C125.88 57.9387 126.232 58.4275 126.444 58.8856C126.656 59.3437 126.762 59.8154 126.762 60.3009C126.762 60.6906 126.687 61.0358 126.537 61.3367C126.386 61.6306 126.181 61.8563 125.921 62.0135C125.668 62.1708 125.388 62.2494 125.08 62.2494C124.807 62.2494 124.567 62.2084 124.362 62.1263C124.164 62.0443 124.007 61.9315 123.891 61.7879C123.774 61.9315 123.614 62.0443 123.409 62.1263C123.21 62.2084 122.988 62.2494 122.742 62.2494C122.236 62.2494 121.84 62.0921 121.552 61.7776C121.272 61.4631 121.132 61.029 121.132 60.4752ZM125.911 60.3214C125.911 59.8154 125.754 59.3232 125.439 58.8446C125.132 58.366 124.632 57.8327 123.942 57.2448C123.272 57.8601 122.776 58.4241 122.455 58.9369C122.14 59.4428 121.983 59.9385 121.983 60.4239C121.983 60.7384 122.052 60.9743 122.188 61.1316C122.332 61.2888 122.537 61.3674 122.804 61.3674C123.07 61.3674 123.275 61.2888 123.419 61.1316C123.569 60.9743 123.645 60.7589 123.645 60.4855V59.7778H124.414V60.4649C124.414 60.6974 124.386 60.8957 124.332 61.0598C124.489 61.2649 124.738 61.3674 125.08 61.3674C125.32 61.3674 125.518 61.2751 125.675 61.0905C125.832 60.8991 125.911 60.6427 125.911 60.3214Z" fill="black"/>
<path d="M155.683 54.8708C155.498 54.8708 155.334 54.8434 155.19 54.7887C155.054 54.734 154.951 54.6554 154.883 54.5528C154.889 54.7032 154.893 54.9631 154.893 55.3322V58.0499H154.042V55.3425C154.042 54.6725 154.007 54.0913 153.939 53.5991C153.871 53.1068 153.734 52.5086 153.529 51.8044L154.349 51.5172L154.811 53.3119C154.934 53.7632 155.204 53.9888 155.621 53.9888C155.84 53.9888 156.024 53.9204 156.175 53.7837C156.332 53.6469 156.411 53.476 156.411 53.2709C156.411 53.0111 156.346 52.4881 156.216 51.7018L157.067 51.5172C157.204 52.3582 157.272 52.9462 157.272 53.2812C157.272 53.582 157.204 53.8555 157.067 54.1016C156.93 54.3409 156.739 54.5289 156.493 54.6656C156.253 54.8024 155.983 54.8708 155.683 54.8708Z" fill="black"/>
<path d="M155.175 100.774C155.175 100.104 155.141 99.5227 155.072 99.0305C155.004 98.5382 154.867 97.94 154.662 97.2358L155.493 96.9486C155.705 97.646 155.845 98.2545 155.913 98.7741C155.989 99.2869 156.026 99.95 156.026 100.764V103.481H155.175V100.774ZM159.792 98.4767C160.127 98.4767 160.448 98.5724 160.756 98.7638C161.07 98.9484 161.32 99.1946 161.504 99.5022C161.696 99.8031 161.792 100.121 161.792 100.456C161.792 100.791 161.696 101.112 161.504 101.42C161.32 101.728 161.07 101.977 160.756 102.169C160.448 102.353 160.127 102.446 159.792 102.446C159.457 102.446 159.132 102.35 158.817 102.158C158.51 101.967 158.26 101.721 158.069 101.42C157.877 101.112 157.782 100.791 157.782 100.456C157.782 100.121 157.877 99.8031 158.069 99.5022C158.26 99.1946 158.51 98.9484 158.817 98.7638C159.132 98.5724 159.457 98.4767 159.792 98.4767ZM159.792 101.625C159.983 101.625 160.168 101.57 160.346 101.461C160.53 101.345 160.681 101.198 160.797 101.02C160.913 100.835 160.971 100.647 160.971 100.456C160.971 100.271 160.913 100.09 160.797 99.9124C160.681 99.7278 160.53 99.5809 160.346 99.4715C160.168 99.3552 159.983 99.2971 159.792 99.2971C159.6 99.2971 159.412 99.3552 159.228 99.4715C159.043 99.5809 158.893 99.7278 158.776 99.9124C158.66 100.09 158.602 100.271 158.602 100.456C158.602 100.647 158.66 100.835 158.776 101.02C158.893 101.198 159.043 101.345 159.228 101.461C159.412 101.57 159.6 101.625 159.792 101.625Z" fill="black"/>
<path d="M152.53 119.863C152.53 119.193 152.496 118.611 152.427 118.119C152.359 117.627 152.222 117.029 152.017 116.325L152.848 116.037C153.06 116.735 153.2 117.343 153.268 117.863C153.344 118.376 153.381 119.039 153.381 119.852V122.57H152.53V119.863ZM157.085 122.57C156.894 121.38 156.617 120.3 156.255 119.329C155.892 118.359 155.417 117.412 154.829 116.489L155.537 115.986C156.029 116.759 156.443 117.569 156.778 118.417C157.113 119.258 157.355 120.105 157.506 120.96C157.82 119.121 158.456 117.463 159.413 115.986L160.141 116.489C159.588 117.336 159.129 118.249 158.767 119.227C158.412 120.198 158.118 121.312 157.885 122.57H157.085Z" fill="black"/>
<path d="M172.18 100.774C172.18 100.104 172.146 99.5227 172.077 99.0305C172.009 98.5382 171.872 97.94 171.667 97.2358L172.498 96.9486C172.71 97.646 172.85 98.2545 172.918 98.7741C172.993 99.2869 173.031 99.95 173.031 100.764V103.481H172.18V100.774ZM175.094 100.774C175.094 100.104 175.06 99.5227 174.992 99.0305C174.923 98.5382 174.787 97.94 174.581 97.2358L175.412 96.9486C175.624 97.646 175.764 98.2545 175.833 98.7741C175.908 99.2869 175.945 99.95 175.945 100.764V103.481H175.094V100.774Z" fill="black"/>
<path d="M189.942 101.919C189.942 101.249 189.907 100.668 189.839 100.176C189.771 99.6835 189.634 99.0853 189.429 98.381L190.259 98.0939C190.471 98.7913 190.612 99.3998 190.68 99.9194C190.755 100.432 190.793 101.095 190.793 101.909V104.627H189.942V101.919ZM194.497 101.447C194.312 101.447 194.148 101.42 194.005 101.365C193.868 101.311 193.765 101.232 193.697 101.129C193.704 101.28 193.707 101.54 193.707 101.909V104.627H192.856V101.919C192.856 101.249 192.822 100.668 192.753 100.176C192.685 99.6835 192.548 99.0853 192.343 98.381L193.164 98.0939L193.625 99.8886C193.748 100.34 194.018 100.565 194.435 100.565C194.654 100.565 194.839 100.497 194.989 100.36C195.146 100.224 195.225 100.053 195.225 99.8476C195.225 99.5878 195.16 99.0647 195.03 98.2785L195.881 98.0939C196.018 98.9348 196.086 99.5228 196.086 99.8578C196.086 100.159 196.018 100.432 195.881 100.678C195.745 100.918 195.553 101.106 195.307 101.242C195.068 101.379 194.798 101.447 194.497 101.447Z" fill="black"/>
<path d="M183.762 131.79C183.762 131.12 183.728 130.546 183.659 130.067C183.591 129.589 183.454 129.011 183.249 128.334L184.521 127.893C184.74 128.57 184.883 129.175 184.951 129.708C185.027 130.235 185.064 130.922 185.064 131.77V134.405H183.762V131.79ZM190.61 131.195C190.125 131.578 189.674 132.033 189.257 132.559C188.839 133.086 188.409 133.739 187.964 134.518L186.867 133.913C187.332 133.045 187.821 132.357 188.334 131.852C187.746 131.838 187.298 131.667 186.99 131.339C186.689 131.004 186.539 130.559 186.539 130.006C186.539 129.623 186.624 129.271 186.795 128.949C186.966 128.628 187.202 128.372 187.503 128.18C187.804 127.989 188.132 127.893 188.487 127.893C188.959 127.893 189.414 128.013 189.851 128.252L189.431 129.339C189.116 129.243 188.826 129.195 188.559 129.195C188.347 129.195 188.173 129.264 188.036 129.401C187.899 129.537 187.831 129.705 187.831 129.903C187.831 130.354 188.101 130.58 188.641 130.58C188.812 130.58 189.017 130.553 189.257 130.498C189.496 130.436 189.749 130.344 190.015 130.221L190.61 131.195Z" fill="white"/>
<path d="M162.733 133.225C162.733 132.555 162.699 131.974 162.631 131.482C162.562 130.989 162.425 130.391 162.22 129.687L163.051 129.4C163.263 130.097 163.403 130.706 163.471 131.225C163.547 131.738 163.584 132.401 163.584 133.215V135.932H162.733V133.225ZM168.232 133.03C167.89 133.187 167.469 133.266 166.97 133.266C166.417 133.266 165.989 133.122 165.688 132.835C165.388 132.541 165.237 132.131 165.237 131.605C165.237 131.222 165.323 130.863 165.494 130.528C165.665 130.186 165.897 129.912 166.191 129.707C166.492 129.502 166.823 129.4 167.186 129.4C167.794 129.4 168.263 129.639 168.591 130.118C168.919 130.589 169.083 131.27 169.083 132.158V135.932H168.232V133.03ZM168.232 132.138C168.232 131.495 168.143 131.02 167.965 130.712C167.787 130.405 167.511 130.251 167.134 130.251C166.84 130.251 166.591 130.374 166.386 130.62C166.188 130.866 166.088 131.174 166.088 131.543C166.088 131.817 166.17 132.025 166.335 132.169C166.505 132.312 166.748 132.384 167.063 132.384C167.548 132.384 167.938 132.302 168.232 132.138Z" fill="black"/>
<path d="M134.359 98.6781C134.1 98.767 133.775 98.8114 133.385 98.8114C132.818 98.8114 132.377 98.6508 132.062 98.3294C131.748 98.0081 131.59 97.5671 131.59 97.0065C131.59 96.6099 131.676 96.2339 131.847 95.8784C132.025 95.516 132.271 95.2254 132.585 95.0067C132.9 94.7879 133.255 94.6785 133.652 94.6785C134.301 94.6785 134.8 94.9212 135.149 95.4066C135.498 95.892 135.672 96.5928 135.672 97.509V101.191H134.359V98.6781ZM134.37 97.3244C134.37 96.8663 134.308 96.5279 134.185 96.3091C134.062 96.0903 133.867 95.9809 133.6 95.9809C133.389 95.9809 133.214 96.0664 133.077 96.2373C132.948 96.4082 132.883 96.627 132.883 96.8937C132.883 97.0783 132.941 97.2218 133.057 97.3244C133.173 97.4201 133.341 97.468 133.559 97.468C133.901 97.468 134.171 97.4201 134.37 97.3244Z" fill="white"/>
<path d="M126.455 127.498C126.455 126.828 126.421 126.247 126.353 125.755C126.284 125.262 126.148 124.664 125.942 123.96L126.773 123.673C126.985 124.37 127.125 124.979 127.194 125.498C127.269 126.011 127.306 126.674 127.306 127.488V130.206H126.455V127.498ZM131.821 123.704C132.019 124.893 132.296 125.977 132.651 126.955C133.014 127.925 133.485 128.866 134.067 129.775L133.369 130.288C132.87 129.508 132.453 128.698 132.118 127.857C131.783 127.009 131.544 126.162 131.4 125.314C131.065 127.18 130.429 128.838 129.493 130.288L128.754 129.775C129.308 128.934 129.766 128.028 130.129 127.057C130.491 126.079 130.788 124.962 131.021 123.704H131.821Z" fill="black"/>
</svg>
